<?xml version="1.0" encoding="UTF-8" standalone="no"?>
<!-- Created with Inkscape (http://www.inkscape.org/) -->

<svg
   width="12mm"
   height="12mm"
   viewBox="0 0 12 12"
   version="1.1"
   id="svg5"
   xmlns="http://www.w3.org/2000/svg"
   xmlns:svg="http://www.w3.org/2000/svg">
  <defs
     id="defs2">
    <marker
       style="overflow:visible"
       id="Arrow1Sstart"
       refX="0.0"
       refY="0.0"
       orient="auto">
      <path
         transform="scale(0.2) translate(6,0)"
         style="fill-rule:evenodd;fill:context-stroke;stroke:context-stroke;stroke-width:1.0pt"
         d="M 0.0,0.0 L 5.0,-5.0 L -12.5,0.0 L 5.0,5.0 L 0.0,0.0 z "
         id="path2150" />
    </marker>
    <marker
       style="overflow:visible"
       id="Arrow2Mstart"
       refX="0.0"
       refY="0.0"
       orient="auto">
      <path
         transform="scale(0.6) translate(0,0)"
         d="M 8.7185878,4.0337352 L -2.2072895,0.016013256 L 8.7185884,-4.0017078 C 6.9730900,-1.6296469 6.9831476,1.6157441 8.7185878,4.0337352 z "
         style="stroke:context-stroke;fill-rule:evenodd;fill:context-stroke;stroke-width:0.62500000;stroke-linejoin:round"
         id="path2162" />
    </marker>
    <marker
       style="overflow:visible"
       id="Arrow1Lstart"
       refX="0.0"
       refY="0.0"
       orient="auto">
      <path
         transform="scale(0.8) translate(12.5,0)"
         style="fill-rule:evenodd;fill:context-stroke;stroke:context-stroke;stroke-width:1.0pt"
         d="M 0.0,0.0 L 5.0,-5.0 L -12.5,0.0 L 5.0,5.0 L 0.0,0.0 z "
         id="path2138" />
    </marker>
  </defs>
  <g
     id="layer1"
     style="display:inline;opacity:1" />
  <g
     id="layer2"
     style="display:inline">
    <g
       id="g11709"
       transform="translate(0.13635187,0.02097721)">
      <path
         style="fill:none;stroke:#000000;stroke-width:0.2;stroke-linecap:round;stroke-linejoin:round;stroke-miterlimit:4;stroke-dasharray:none;stroke-opacity:1;marker-start:url(#Arrow1Sstart)"
         d="m 0.93348581,3.7549205 1.27960989,1.1e-6"
         id="path2070" />
      <path
         style="fill:none;stroke:#000000;stroke-width:0.2;stroke-linecap:round;stroke-linejoin:round;stroke-miterlimit:4;stroke-dasharray:none;stroke-opacity:1"
         d="M 3.1046275,6.1463226 C 2.1177393,4.6651419 1.8285223,3.134491 3.0416955,1.5418249 l 1.7411084,0.9229973"
         id="path2594" />
      <path
         style="fill:none;stroke:#000000;stroke-width:0.2;stroke-linecap:round;stroke-linejoin:round;stroke-miterlimit:4;stroke-dasharray:none;stroke-opacity:1"
         d="M 3.1046274,6.1463226 4.7828038,4.992576"
         id="path3093" />
      <path
         style="fill:none;stroke:#000000;stroke-width:0.2;stroke-linecap:round;stroke-linejoin:round;stroke-miterlimit:4;stroke-dasharray:none;stroke-opacity:1"
         d="M 2.3494475,3.5766144 5.0135533,3.1780474 4.8772012,2.4543336 C 4.9119799,2.1391959 5.0518009,1.8555457 5.355031,1.8516781 5.7985576,1.8460211 5.8126206,1.9560909 5.9050845,2.4753107 L 6.0414365,3.2409788 6.8490591,3.4297739 6.3560947,3.0626728 c -0.5576488,-0.4152704 1.2692516,0.2108019 1.7411084,0.6188276 0,0 -0.6519758,0.3873467 -1.0173948,0.4195441 -0.2281639,0.020104 -0.6712706,-0.1468403 -0.6712706,-0.1468403 0,0 -0.4929501,0.6440518 -0.5768732,1.0278832 -0.027722,0.1267887 0.2202609,0.4300328 0.2202609,0.4300328 0.00423,0.084627 0.3974676,0.1926552 0.8814645,0.1914248 0.483997,-0.00123 1.0587546,-0.069765 1.4679831,-0.086538 0.4299764,-0.017623 0.5830006,-1.982e-4 0.9439743,-6e-7 0.4914509,2.69e-4 0.9247527,-0.084063 1.2271667,0.1992836 0.261792,0.2452859 0.146107,0.7029547 0.241238,1.04886 0.106136,0.3859214 0.29368,1.1852125 0.29368,1.1852125 C 10.415875,7.4009042 10.498609,7.5619477 10.257856,6.6917299 10.207091,6.0998713 9.7858448,5.9052027 9.7753798,5.9575276 v 1.3110757 c 0,0 0.5710182,0.6161789 0.6712712,1.006906 0.142154,0.5540329 -0.146841,1.7096428 -0.146841,1.7096428 L 10.121504,10.310299 H 9.7963571 c 0,0 0.1641084,-0.3264274 0.1992836,-0.5034533 C 10.08423,9.3610019 10.177723,8.8683796 10.016617,8.4433271 9.8622469,8.0360465 9.1355742,7.4783753 9.1355742,7.4783753 c 0,0 -0.1038645,0.3993915 -0.07342,0.5978507 0.019217,0.1252689 0.1650502,0.219625 0.1573292,0.3461239 C 9.2104934,8.5695808 8.988734,8.7999397 8.988734,8.7999397 l -0.8390885,1.3635183 -0.471987,0.01049 c 0,0 0.8402767,-0.995639 1.006906,-1.6047563 C 8.7196321,8.4409981 8.7289288,8.2916765 8.6740761,8.1706227 8.5699203,7.9407627 8.255033,7.8687078 8.1181799,7.6566812 8.0642191,7.5730797 8.0237826,7.3734887 8.0237826,7.3734887 c 0,0 -1.0603951,0.3796742 -1.6152452,0.4195442 -0.1894681,0.013615 -0.5663845,-0.062931 -0.5663845,-0.062931 l 0.052443,0.3985667 c 0,0 0.1887004,0.9819284 0.188795,1.4788936 3.69e-5,0.1938422 -0.07342,0.5768728 -0.07342,0.5768728 l -0.4614987,0.02098 c 0,0 0.1432345,-0.4512107 0.1783065,-0.7132246 C 5.7486579,9.3287283 5.7245155,9.1592892 5.6848238,8.9992214 5.5943324,8.6342896 5.3386997,7.9293838 5.3386997,7.9293838 c 0,0 -0.411341,0.4152506 -0.5244304,0.6817592 -0.205223,0.4836327 -0.1573288,1.531336 -0.1573288,1.531336 l -0.3251468,0.05244 c 0,0 -0.04107,-1.3257847 0.1887948,-1.9299029 0.1076827,-0.2830059 0.534919,-0.7342023 0.534919,-0.7342023 0,0 -0.2787167,-1.180596 -0.3146584,-1.7830628 -0.015014,-0.2516672 0.041954,-0.7551795 0.041954,-0.7551795"
         id="path3341" />
      <path
         style="fill:none;stroke:#000000;stroke-width:0.2;stroke-linecap:round;stroke-linejoin:round;stroke-miterlimit:4;stroke-dasharray:none;stroke-opacity:1"
         d="m 2.2760273,3.9751812 2.5067765,0.094397 -8e-7,0.9229928"
         id="path8603" />
    </g>
  </g>
</svg>
