<?xml version="1.0" encoding="UTF-8" standalone="no"?>
<!-- Created with Inkscape (http://www.inkscape.org/) -->

<svg
   width="12mm"
   height="12mm"
   viewBox="0 0 12 12"
   version="1.1"
   id="svg5"
   xmlns="http://www.w3.org/2000/svg"
   xmlns:svg="http://www.w3.org/2000/svg">
  <defs
     id="defs2" />
  <g
     id="layer1" />
  <g
     id="layer2">
    <g
       id="g1804">
      <path
         style="fill:none;stroke:#000000;stroke-width:0.2;stroke-linecap:round;stroke-linejoin:round;stroke-miterlimit:4;stroke-dasharray:none;stroke-opacity:1"
         d="m 6.0133113,8.2625651 c 0,0 0.6515884,-0.4480289 0.9639658,-0.596741 C 7.4080535,7.4607463 7.9309039,7.6394105 8.2396136,7.2756476 8.5036553,6.9645185 8.5878444,6.546495 8.3773229,6.1969238 7.9977737,5.5666819 7.1838339,6.0821478 7.1838412,6.082166"
         id="path3334" />
      <path
         style="fill:none;stroke:#000000;stroke-width:0.2;stroke-linecap:round;stroke-linejoin:round;stroke-miterlimit:4;stroke-dasharray:none;stroke-opacity:1"
         d="m 5.9903597,7.0920349 c 0,0 -0.7169434,-0.4701987 -1.0328206,-0.7574017 C 4.5405748,5.9555194 3.8095291,5.9107786 3.8329121,5.0722969 3.8524168,4.3728861 4.9575389,4.0853795 4.9575389,4.0853795"
         id="path3336" />
      <path
         style="fill:none;stroke:#000000;stroke-width:0.2;stroke-linecap:round;stroke-linejoin:round;stroke-miterlimit:4;stroke-dasharray:none;stroke-opacity:1"
         d="m 6.0362628,5.9444566 c 0,-0.1461473 1.4407193,-1.0145573 1.7672709,-1.4229974 C 7.9611898,4.3242681 7.8871298,4.0112028 7.734679,3.8099605 7.5811124,3.6072452 7.3072806,3.468396 7.0690834,3.5574933 6.794816,3.6600826 6.5871005,4.2919435 6.5871005,4.2919435"
         id="path3338" />
      <path
         style="fill:none;stroke:#000000;stroke-width:0.2;stroke-linecap:round;stroke-linejoin:round;stroke-miterlimit:4;stroke-dasharray:none;stroke-opacity:1"
         d="m 5.9674082,3.4427355 c 0,0 -0.3667807,-0.1519568 -0.481983,-0.2983704 C 5.2905419,2.8966823 5.3124136,2.6312858 5.3477157,2.3181085 5.3693952,2.1257819 5.4165705,1.7213678 5.4165705,1.7213678"
         id="path3340" />
      <path
         style="fill:none;stroke:#000000;stroke-width:0.2;stroke-linecap:round;stroke-linejoin:round;stroke-miterlimit:4;stroke-dasharray:none;stroke-opacity:1"
         d="M 6.0821659,2.2263022 6.5182458,1.7902224"
         id="path3342" />
      <path
         style="fill:none;stroke:#000000;stroke-width:0.2;stroke-linecap:round;stroke-linejoin:round;stroke-miterlimit:4;stroke-dasharray:none;stroke-opacity:1"
         d="M 6.0362628,5.9444566 4.9575391,6.3346332"
         id="path3344" />
      <path
         style="fill:none;stroke:#000000;stroke-width:0.2;stroke-linecap:round;stroke-linejoin:round;stroke-miterlimit:4;stroke-dasharray:none;stroke-opacity:1"
         d="M 5.5772314,11.10856 6.0133113,10.810189"
         id="path3559" />
      <path
         style="fill:none;stroke:#000000;stroke-width:0.204114;stroke-linecap:round;stroke-linejoin:round;stroke-miterlimit:4;stroke-dasharray:none;stroke-opacity:1"
         d="M 6.0135386,0.69476829 6.0133113,10.810189"
         id="path857" />
      <path
         style="fill:none;stroke:#000000;stroke-width:0.204114;stroke-linecap:round;stroke-linejoin:round;stroke-miterlimit:4;stroke-dasharray:none;stroke-opacity:1"
         d="M 6.0135385,0.69476828 C 5.9653392,0.74241607 8.3869045,4.477708 8.7755437,6.3313518 9.1951622,8.3327538 6.2830842,10.111429 6.0584,9.9385947"
         id="path43" />
      <path
         style="fill:none;stroke:#000000;stroke-width:0.204114;stroke-linecap:round;stroke-linejoin:round;stroke-miterlimit:4;stroke-dasharray:none;stroke-opacity:1"
         d="M 6.0135385,0.69476828 C 6.0617379,0.74241557 3.6401724,4.477708 3.2515332,6.3313518 2.8319148,8.3327538 5.7439927,10.111429 5.9686769,9.9385947"
         id="path43-2" />
      <path
         style="fill:none;stroke:#000000;stroke-width:0.204114;stroke-linecap:round;stroke-linejoin:round;stroke-miterlimit:4;stroke-dasharray:none;stroke-opacity:1"
         d="M 7.1124644,10.383644 C 8.567281,9.3845469 9.4355546,8.0794272 9.4548298,6.3313518 c 0,0 0.9944852,1.9720641 0.4918965,2.8576856 C 9.4347552,10.091193 7.1124644,10.383644 7.1124644,10.383644 Z"
         id="path1407" />
      <path
         style="fill:none;stroke:#000000;stroke-width:0.204114;stroke-linecap:round;stroke-linejoin:round;stroke-miterlimit:4;stroke-dasharray:none;stroke-opacity:1"
         d="M 4.8780489,10.383214 C 3.4232323,9.3841159 2.5549587,8.0789962 2.5356836,6.3309208 c 0,0 -0.9944853,1.9720641 -0.4918967,2.8576856 0.5119713,0.9021566 2.834262,1.1946076 2.834262,1.1946076 z"
         id="path1407-7" />
      <path
         style="fill:none;stroke:#000000;stroke-width:0.2;stroke-linecap:round;stroke-linejoin:round;stroke-miterlimit:4;stroke-dasharray:none;stroke-opacity:1"
         d="M 7.3423979,10.76885 C 8.3214929,10.605794 9.2537194,10.39587 9.9975278,9.9975271"
         id="path1545" />
      <path
         style="fill:none;stroke:#000000;stroke-width:0.2;stroke-linecap:round;stroke-linejoin:round;stroke-miterlimit:4;stroke-dasharray:none;stroke-opacity:1"
         d="M 4.6020289,10.754017 C 3.6229339,10.590961 2.6907074,10.381037 1.946899,9.982694"
         id="path1788" />
    </g>
  </g>
</svg>
